<svg width="120" height="25" viewBox="0 0 120 25" fill="none" xmlns="http://www.w3.org/2000/svg">
<g clip-path="url(#clip0)">
<path d="M92.1255 4.464C92.8326 4.45832 93.5366 4.55946 94.2135 4.764L95.4615 0.195C94.7634 0.0704852 94.0556 0.0082405 93.3465 0.009C90.2897 0.124262 87.321 1.06468 84.7553 2.73053C82.1897 4.39637 80.1227 6.72554 78.7736 9.471C78.4492 10.1564 78.1842 10.8683 77.9816 11.599C77.7713 12.3554 77.64 13.1315 77.5896 13.915C77.2666 19.206 81.0896 23.19 86.9895 23.19C87.7411 23.1884 88.4913 23.1248 89.2325 23L90.4815 18.431C89.7409 18.6323 88.9771 18.7359 88.2095 18.739C84.9165 18.739 82.6736 16.722 82.4316 13.916H91.7145L92.7965 9.951L92.9235 9.471H83.5846C84.4839 7.99587 85.7346 6.76652 87.225 5.89279C88.7154 5.01905 90.3991 4.52817 92.1255 4.464ZM64.5667 0.054H80.0186L78.8756 4.476H73.5866L68.7516 23.194H63.8807L68.7136 4.476H63.4227L64.5667 0.054ZM12.7169 0.054C11.0785 0.0813953 9.47977 0.562425 8.09825 1.44366C6.71674 2.3249 5.60654 3.57185 4.89097 5.046C4.42777 6.32428 4.35964 7.71231 4.69543 9.0298C5.03122 10.3473 5.75542 11.5334 6.77396 12.434L10.5039 15.456C10.8139 15.7409 11.0141 16.1255 11.0698 16.5428C11.1255 16.9601 11.0332 17.3837 10.8089 17.74C10.5402 18.1143 10.1724 18.4063 9.7468 18.5829C9.32122 18.7596 8.85477 18.814 8.39995 18.74H1.16799L0 23.192H8.37395C9.87912 23.2151 11.3646 22.8482 12.6859 22.1269C14.0072 21.4056 15.1193 20.3545 15.9139 19.076C15.9139 19.076 18.6479 15.076 15.3989 11.899C13.8204 10.5512 12.2397 9.20586 10.6569 7.863C10.3398 7.63508 10.1027 7.31281 9.97948 6.94217C9.85629 6.57152 9.85331 6.17144 9.97095 5.799C10.1034 5.49401 10.3063 5.22483 10.5631 5.0136C10.8199 4.80237 11.1231 4.65513 11.4479 4.584C11.813 4.50579 12.1856 4.46823 12.5589 4.472H18.3789L19.5199 0.05H12.7199L12.7169 0.054ZM35.2788 0C28.5488 0 21.6689 5.19 19.9139 11.591C18.1589 17.992 22.1919 23.182 28.9218 23.182C35.6518 23.182 42.5318 18 44.2878 11.6C46.0438 5.2 42.0098 0 35.2788 0ZM39.6068 11.6C38.9545 13.6187 37.6958 15.3873 36.0021 16.6648C34.3084 17.9423 32.2621 18.6666 30.1418 18.739C25.9959 18.739 23.5119 15.539 24.5929 11.6C25.2454 9.58144 26.5042 7.81303 28.1978 6.53558C29.8915 5.25813 31.9377 4.53373 34.0578 4.461C38.1998 4.456 40.6878 7.652 39.6068 11.6ZM59.9997 9.446H52.3997L53.0067 6.924C53.2216 6.27346 53.6171 5.69748 54.1471 5.26331C54.6771 4.82913 55.3196 4.55468 55.9997 4.472H61.2437L62.3887 0.05H56.6527C54.6933 0.0915214 52.8024 0.778656 51.2734 2.00476C49.7444 3.23087 48.6629 4.92738 48.1967 6.831L43.9338 23.191H48.8057L51.2557 13.891H58.8667L59.9997 9.446ZM110.575 0C107.551 0.114932 104.613 1.03666 102.065 2.66963C99.5175 4.30259 97.4529 6.58734 96.0855 9.287C95.7172 10.0359 95.4199 10.8176 95.1975 11.622C95.0967 11.9935 95.0156 12.37 94.9545 12.75C94.9545 12.765 94.9545 12.781 94.9465 12.795C94.8885 13.149 94.8465 13.495 94.8285 13.839C94.8285 13.906 94.8205 13.971 94.8165 14.039C94.8165 14.131 94.8055 14.224 94.8025 14.316C94.8025 14.536 94.8095 14.75 94.8185 14.965V15.105C94.8385 15.433 94.8735 15.755 94.9235 16.07C94.9235 16.096 94.9305 16.119 94.9365 16.144C95.1866 17.763 95.8836 19.28 96.9491 20.5243C98.0146 21.7686 99.4063 22.6907 100.967 23.187L100.976 23.154L102.263 18.386C100.145 17.208 99.1235 14.377 99.8875 11.595C100.54 9.57667 101.798 7.80841 103.491 6.53097C105.185 5.25353 107.231 4.52899 109.35 4.456C113.498 4.456 115.982 7.656 114.9 11.595C114.395 13.1651 113.521 14.5913 112.351 15.7543C111.181 16.9174 109.75 17.7834 108.177 18.28L109.315 13.897H104.749L101.857 25H106.42L106.958 22.923C108.208 22.6621 109.421 22.2528 110.573 21.704L110.799 21.6C111.262 21.376 111.711 21.132 112.152 20.867C112.252 20.811 112.344 20.756 112.439 20.699C112.663 20.559 112.883 20.414 113.102 20.263C113.281 20.141 113.454 20.013 113.628 19.885C113.89 19.69 114.147 19.485 114.399 19.285C114.605 19.1137 114.807 18.939 115.004 18.761C115.137 18.64 115.269 18.522 115.399 18.397C115.699 18.113 115.98 17.816 116.253 17.512C116.34 17.412 116.425 17.312 116.51 17.212C116.81 16.868 117.092 16.518 117.354 16.154L117.448 16.021C117.703 15.6652 117.94 15.2978 118.16 14.92C118.311 14.665 118.449 14.405 118.584 14.143C118.639 14.033 118.698 13.926 118.75 13.815C118.864 13.579 118.963 13.338 119.062 13.095C119.118 12.962 119.178 12.828 119.228 12.695C119.302 12.495 119.361 12.295 119.428 12.095C119.482 11.927 119.546 11.762 119.592 11.595C121.34 5.189 117.305 0 110.575 0Z" fill="white"/>
</g>
<defs>
<clipPath id="clip0">
<rect width="120" height="25" fill="white"/>
</clipPath>
</defs>
</svg>
