<?xml version="1.0" encoding="UTF-8"?>
<svg id="_图层_1" xmlns="http://www.w3.org/2000/svg" version="1.1" viewBox="0 0 660 660">
  <!-- Generator: Adobe Illustrator 29.1.0, SVG Export Plug-In . SVG Version: 2.1.0 Build 142)  -->
  <defs>
    <style>
      .st0 {
        fill: #02ffff;
      }

      .st1 {
        fill: #0a52d9;
      }

      .st2 {
        fill: #7c61f9;
      }

      .st3 {
        fill: #918cf9;
      }

      .st4 {
        fill: #7233f1;
      }

      .st5 {
        fill: #5115c7;
      }

      .st6 {
        fill: #6a24f2;
      }

      .st7 {
        fill: #2f72fd;
      }

      .st8 {
        fill: #fff;
      }

      .st9 {
        fill: #02def9;
      }

      .st10 {
        fill: #019dec;
      }

      .st11 {
        fill: #917df9;
      }

      .st12 {
        fill: #06b7ea;
      }

      .st13 {
        fill: #369ef6;
      }

      .st14 {
        fill: #292b2d;
      }

      .st15 {
        fill: #0034c5;
      }

      .st16 {
        fill: #05c2ec;
      }
    </style>
  </defs>
  <circle id="Oval" class="st8" cx="329.5" cy="329.5" r="126.5"/>
  <path id="Shape" class="st8" d="M203,203"/>
  <path id="Path" d="M444.3,166.2"/>
  <g>
    <g>
      <path class="st14" d="M288.3,345.6h7.6v12h10.4v-12h7.5v31.5h-7.5v-12.9h-10.4v12.9h-7.6v-31.5Z"/>
      <path class="st14" d="M319.6,361.6c0-10.5,7-16.5,15-16.5s7.4,1.9,9.6,4.1l-3.9,4.8c-1.6-1.4-3.3-2.5-5.5-2.5-4.1,0-7.4,3.6-7.4,9.8s2.9,9.9,7.3,9.9,4.5-1.3,6-2.9l4,4.7c-2.7,3.1-6.2,4.7-10.3,4.7-8,0-14.8-5.5-14.8-16.2Z"/>
      <path class="st14" d="M344.8,345.6h8l3.6,14.4c.9,3.4,1.6,6.6,2.5,10.1h.2c.9-3.5,1.6-6.7,2.5-10.1l3.6-14.4h7.7l-9.4,31.5h-9.1l-9.4-31.5Z"/>
    </g>
    <g>
      <path class="st14" d="M293,389v-2.8h-3.3v2.8h-1.1v-6.4h1.1v2.6h3.3v-2.6h1.1v6.4h-1.1Z"/>
      <path class="st14" d="M301.7,389l-.5-1.2h-3l-.5,1.2h-1.2l2.5-6.4h1.4l2.5,6.4h-1.2ZM299.7,383.6l-1.2,3.2h2.4l-1.2-3.2Z"/>
      <path class="st14" d="M309.7,389l-3.3-4.6v4.6h-1.1v-6.4h1.1l3.3,4.5v-4.5h1.1v6.4h-1.1Z"/>
      <path class="st14" d="M313.9,389v-6.4h2.4c2,0,3.3,1.3,3.3,3.2s-1.3,3.2-3.3,3.2h-2.4ZM315,388h1.2c1.4,0,2.2-1,2.2-2.2s-.8-2.2-2.2-2.2h-1.2v4.4Z"/>
      <path class="st14" d="M326.2,385.8c0-2,1.5-3.3,3.3-3.3s2.1.7,2.6,1.4l-1,.5c-.3-.5-.9-.9-1.6-.9-1.2,0-2.1,1-2.1,2.3s.9,2.3,2.1,2.3,1.3-.4,1.6-.9l1,.5c-.5.8-1.3,1.4-2.6,1.4s-3.3-1.3-3.3-3.3Z"/>
      <path class="st14" d="M339.2,389v-2.8h-3.3v2.8h-1.1v-6.4h1.1v2.6h3.3v-2.6h1.1v6.4h-1.1Z"/>
      <path class="st14" d="M346.3,382.5c1.9,0,3.3,1.4,3.3,3.3s-1.3,3.3-3.3,3.3-3.3-1.4-3.3-3.3,1.3-3.3,3.3-3.3ZM346.3,383.5c-1.3,0-2.1,1-2.1,2.3s.8,2.3,2.1,2.3,2.1-1,2.1-2.3-.8-2.3-2.1-2.3Z"/>
      <path class="st14" d="M352.3,389v-6.4h1.1v6.4h-1.1Z"/>
      <path class="st14" d="M356.2,385.8c0-2,1.5-3.3,3.3-3.3s2.1.7,2.6,1.4l-1,.5c-.3-.5-.9-.9-1.6-.9-1.2,0-2.1,1-2.1,2.3s.9,2.3,2.1,2.3,1.3-.4,1.6-.9l1,.5c-.5.8-1.3,1.4-2.6,1.4s-3.3-1.3-3.3-3.3Z"/>
      <path class="st14" d="M364.7,389v-6.4h4.4v1h-3.2v1.6h3.2v1h-3.2v1.8h3.2v1h-4.4Z"/>
      <path class="st14" d="M301.1,400.4l-2.5-6.4h1.3l1.9,5.1,1.9-5.1h1.3l-2.5,6.4h-1.4Z"/>
      <path class="st14" d="M307.4,400.4v-6.4h4.4v1h-3.2v1.6h3.2v1h-3.2v1.8h3.2v1h-4.4Z"/>
      <path class="st14" d="M319,400.4l-3.3-4.6v4.6h-1.1v-6.4h1.1l3.3,4.5v-4.5h1.1v6.4h-1.1Z"/>
      <path class="st14" d="M324.7,400.4v-5.4h-1.9v-1h5v1h-1.9v5.4h-1.1Z"/>
      <path class="st14" d="M330.4,394h1.1v3.8c0,1,.6,1.7,1.6,1.7s1.6-.7,1.6-1.7v-3.8h1.1v3.8c0,1.6-.9,2.6-2.7,2.6s-2.8-1.1-2.8-2.6v-3.9Z"/>
      <path class="st14" d="M342.6,400.4l-1.4-2.4h-1.1v2.4h-1.1v-6.4h2.8c1.3,0,2.1.8,2.1,2s-.7,1.7-1.5,1.9l1.6,2.5h-1.3ZM341.6,395h-1.5v2h1.5c.6,0,1.1-.4,1.1-1s-.5-1-1.1-1Z"/>
      <path class="st14" d="M346.7,400.4v-6.4h4.4v1h-3.2v1.6h3.2v1h-3.2v1.8h3.2v1h-4.4Z"/>
      <path class="st14" d="M354.1,398.7c.4.5,1.1.9,2,.9s1.3-.4,1.3-.9-.7-.7-1.4-.9c-1-.3-2.3-.6-2.3-1.9s.9-1.9,2.3-1.9,1.8.3,2.4.9l-.6.8c-.5-.5-1.2-.7-1.8-.7s-1.1.3-1.1.8.6.7,1.4.8c1,.3,2.3.6,2.3,2s-.7,2-2.5,2-2-.4-2.6-1l.6-.9Z"/>
    </g>
    <g>
      <polygon class="st10" points="362.8 298.8 345.8 308.6 362.8 318.4 362.8 298.8"/>
      <polygon class="st12" points="345.8 308.6 345.8 328.2 362.8 318.4 345.8 308.6"/>
      <polygon class="st9" points="328.8 338 345.8 328.2 328.8 318.4 328.8 338"/>
      <polygon class="st16" points="345.8 308.6 328.8 318.4 345.8 328.2 345.8 308.6"/>
      <polygon class="st0" points="328.8 338 328.8 318.4 311.8 328.2 328.8 338"/>
      <polygon class="st1" points="345.8 289 328.8 279.1 345.8 269.3 345.8 289"/>
      <polygon class="st7" points="345.8 289 362.8 279.1 362.8 298.8 345.8 289"/>
      <polygon class="st13" points="345.8 289 345.8 308.6 362.8 298.8 345.8 289"/>
      <polygon class="st15" points="328.8 259.5 345.8 269.3 328.8 279.1 328.8 259.5"/>
      <polygon class="st6" points="311.7 308.6 294.7 298.7 311.7 288.9 311.7 308.6"/>
      <polygon class="st4" points="311.7 308.6 294.7 298.7 294.7 318.4 311.7 308.6"/>
      <polygon class="st2" points="294.7 279.1 311.7 288.9 294.7 298.7 294.7 279.1"/>
      <polygon class="st3" points="294.7 279.1 294.7 259.5 311.7 269.3 294.7 279.1"/>
      <polygon class="st11" points="294.7 279.1 311.7 288.9 311.7 269.3 294.7 279.1"/>
      <polygon class="st5" points="311.7 308.6 311.7 288.9 328.7 298.7 311.7 308.6"/>
    </g>
  </g>
</svg>