<svg width="85" height="85" viewBox="0 0 85 85" fill="none" xmlns="http://www.w3.org/2000/svg">
<g opacity="0.3">
<path d="M84 42.5C84 65.4198 65.4198 84 42.5 84C19.5802 84 1 65.4198 1 42.5C1 19.5802 19.5802 1 42.5 1C65.4198 1 84 19.5802 84 42.5Z" fill="#191919" stroke="white" stroke-width="2"/>
<path fill-rule="evenodd" clip-rule="evenodd" d="M64.6098 54.6785C58.6054 59.123 49.8818 61.4824 42.3809 61.4824C31.8687 61.4824 22.3967 57.5866 15.2426 51.1118C14.6768 50.5997 15.1879 49.9047 15.8631 50.3071C23.6013 54.8065 33.1462 57.5317 43.0197 57.5317C49.681 57.5317 56.9994 56.1417 63.7338 53.2884C64.7376 52.8311 65.5953 53.9469 64.6098 54.6785Z" fill="white"/>
<path fill-rule="evenodd" clip-rule="evenodd" d="M67.1123 51.8251C66.3457 50.8375 62.0386 51.3496 60.0859 51.5874C59.5019 51.6605 59.4106 51.1484 59.9399 50.7643C63.3709 48.35 69.0103 49.0451 69.6673 49.8498C70.3243 50.6728 69.4848 56.3245 66.2728 59.0314C65.78 59.4521 65.3054 59.2326 65.5245 58.6839C66.2545 56.8732 67.8788 52.7945 67.1123 51.8251Z" fill="white"/>
<path d="M30.4639 40.5398C30.4639 41.2166 30.537 41.7652 30.6648 42.1676C30.8107 42.5701 30.9933 43.009 31.2487 43.4846C31.34 43.6309 31.3765 43.7772 31.3765 43.9052C31.3765 44.0882 31.267 44.271 31.0298 44.454L29.88 45.2221C29.7157 45.3319 29.5514 45.3868 29.4054 45.3868C29.2229 45.3868 29.0405 45.2953 28.8579 45.1307C28.6024 44.8563 28.3835 44.5637 28.2009 44.271C28.0184 43.9601 27.8359 43.6125 27.6352 43.1919C26.2116 44.8746 24.4231 45.7159 22.2695 45.7159C20.7365 45.7159 19.5137 45.277 18.6195 44.3991C17.7252 43.5211 17.2689 42.3506 17.2689 40.8873C17.2689 39.3326 17.8164 38.0706 18.9297 37.1195C20.043 36.1684 21.5212 35.6929 23.4011 35.6929C24.0216 35.6929 24.6604 35.7477 25.3356 35.8391C26.0109 35.9307 26.7044 36.0769 27.4344 36.2416V34.9064C27.4344 33.5163 27.1424 32.5469 26.5766 31.98C25.9926 31.4129 25.0071 31.1385 23.6018 31.1385C22.9631 31.1385 22.3061 31.2117 21.6308 31.3763C20.9555 31.5409 20.2985 31.7421 19.6597 31.9982C19.3677 32.1262 19.1487 32.1994 19.021 32.2359C18.8932 32.2725 18.8019 32.2908 18.729 32.2908C18.4734 32.2908 18.3457 32.108 18.3457 31.7239V30.8276C18.3457 30.5349 18.3822 30.3155 18.4734 30.1875C18.5647 30.0594 18.729 29.9314 18.9845 29.8033C19.6232 29.4741 20.3898 29.1998 21.284 28.9803C22.1783 28.7425 23.1273 28.6328 24.131 28.6328C26.3029 28.6328 27.8907 29.1266 28.9127 30.1143C29.9165 31.102 30.4274 32.6018 30.4274 34.6137V40.5398H30.4639ZM23.0543 43.32C23.6566 43.32 24.2771 43.2102 24.9341 42.9907C25.5911 42.7712 26.1751 42.3689 26.6679 41.8201C26.9599 41.4726 27.1789 41.0885 27.2884 40.6495C27.3979 40.2106 27.4709 39.6801 27.4709 39.0583V38.2901C26.9417 38.1621 26.3759 38.0523 25.7918 37.9792C25.2078 37.906 24.6421 37.8694 24.0764 37.8694C22.8535 37.8694 21.9593 38.1072 21.357 38.601C20.7548 39.0949 20.4627 39.7899 20.4627 40.7044C20.4627 41.5641 20.6818 42.2043 21.138 42.6432C21.576 43.1005 22.2148 43.32 23.0543 43.32ZM37.7093 45.2953C37.3808 45.2953 37.1619 45.2404 37.0159 45.1124C36.8699 45.0026 36.7421 44.7466 36.6326 44.3991L32.3438 30.2606C32.2343 29.8948 32.1795 29.657 32.1795 29.529C32.1795 29.2364 32.3255 29.0717 32.6175 29.0717H34.406C34.7528 29.0717 34.9901 29.1267 35.1178 29.2547C35.2638 29.3644 35.3734 29.6205 35.4828 29.968L38.5489 42.0762L41.3959 29.968C41.4872 29.6022 41.5967 29.3644 41.7427 29.2547C41.8887 29.1449 42.1442 29.0717 42.4727 29.0717H43.9328C44.2796 29.0717 44.5168 29.1267 44.6627 29.2547C44.8088 29.3644 44.9366 29.6205 45.0095 29.968L47.8931 42.2226L51.0504 29.968C51.1599 29.6022 51.2876 29.3644 51.4154 29.2547C51.5615 29.1449 51.7987 29.0717 52.1272 29.0717H53.8245C54.1165 29.0717 54.2807 29.2181 54.2807 29.529C54.2807 29.6205 54.2625 29.7119 54.2443 29.8216C54.226 29.9314 54.1895 30.0777 54.1165 30.2789L49.7181 44.4174C49.6087 44.7832 49.4809 45.0209 49.3349 45.1307C49.1889 45.2404 48.9517 45.3136 48.6413 45.3136H47.0718C46.7251 45.3136 46.4878 45.2587 46.3418 45.1307C46.1958 45.0026 46.068 44.7649 45.995 44.3991L43.1663 32.6018L40.3556 44.3808C40.2645 44.7466 40.1549 44.9843 40.009 45.1124C39.8629 45.2404 39.6075 45.2953 39.2789 45.2953H37.7093ZM61.1612 45.7892C60.2122 45.7892 59.2631 45.6794 58.3506 45.4599C57.4381 45.2404 56.7263 45.0026 56.2518 44.7283C55.9598 44.5637 55.759 44.3808 55.686 44.2162C55.613 44.0516 55.5766 43.8686 55.5766 43.7041V42.7712C55.5766 42.3871 55.7225 42.2043 55.9963 42.2043C56.1058 42.2043 56.2153 42.2226 56.3248 42.2591C56.4343 42.2957 56.5985 42.3689 56.7811 42.442C57.4016 42.7164 58.0768 42.9359 58.7886 43.0822C59.5186 43.2285 60.2304 43.3017 60.9604 43.3017C62.1102 43.3017 63.0044 43.1005 63.6249 42.6981C64.2454 42.2957 64.5739 41.7104 64.5739 40.9605C64.5739 40.4484 64.4097 40.0276 64.0812 39.6801C63.7527 39.3326 63.1322 39.0217 62.2379 38.7291L59.5916 37.906C58.2593 37.4853 57.2738 36.8634 56.6715 36.0404C56.0693 35.2356 55.759 34.3393 55.759 33.3883C55.759 32.62 55.9233 31.9433 56.2518 31.3581C56.5803 30.7727 57.0183 30.2606 57.5659 29.8583C58.1133 29.4375 58.7338 29.1267 59.4639 28.9071C60.1939 28.6876 60.9604 28.5962 61.7634 28.5962C62.1649 28.5962 62.5846 28.6145 62.9862 28.6693C63.406 28.7242 63.7892 28.7974 64.1725 28.8706C64.5375 28.962 64.8842 29.0534 65.2127 29.1632C65.5412 29.2729 65.7968 29.3827 65.9792 29.4925C66.2347 29.6387 66.4173 29.785 66.5268 29.9497C66.6363 30.096 66.691 30.2972 66.691 30.5533V31.4129C66.691 31.797 66.5451 31.9982 66.2712 31.9982C66.1253 31.9982 65.888 31.925 65.5777 31.7787C64.5375 31.3032 63.3694 31.0654 62.0737 31.0654C61.0334 31.0654 60.2122 31.23 59.6463 31.5775C59.0806 31.925 58.7886 32.4555 58.7886 33.2054C58.7886 33.7175 58.9711 34.1565 59.3361 34.504C59.7011 34.8515 60.3764 35.199 61.3436 35.51L63.9352 36.333C65.2492 36.7537 66.1983 37.339 66.764 38.0889C67.3298 38.8388 67.6035 39.6984 67.6035 40.6495C67.6035 41.436 67.4393 42.1493 67.1291 42.7712C66.8006 43.3931 66.3625 43.9418 65.7968 44.3808C65.2309 44.8381 64.5557 45.1673 63.771 45.4051C62.9497 45.6611 62.0919 45.7892 61.1612 45.7892Z" fill="white"/>
</g>
</svg>
